<?xml version="1.0" encoding="UTF-8" standalone="no"?>
<svg width="320px" height="240px" viewBox="0 0 320 240" version="1.1" xmlns="http://www.w3.org/2000/svg" xmlns:xlink="http://www.w3.org/1999/xlink">
    <!-- Generator: Sketch 43.2 (39069) - http://www.bohemiancoding.com/sketch -->
    <title>coinhover</title>
    <desc>Created with Sketch.</desc>
    <defs></defs>
    <g id="Page-1" stroke="none" stroke-width="1" fill="none" fill-rule="evenodd">
        <g id="(+)" transform="translate(2.000000, 2.000000)" fill="#842B59">
            <path d="M18,36 C8.0588745,36 0,27.9411255 0,18 C0,8.0588745 8.0588745,0 18,0 C27.9411255,0 36,8.0588745 36,18 C36,27.9411255 27.9411255,36 18,36 Z M19.8066173,9 L16.1933828,9 L16.1933828,16.1933823 L9,16.1933823 L9,19.8066177 L16.1933828,19.8066177 L16.1933828,27 L19.8066173,27 L19.8066173,19.8066177 L27,19.8066177 L27,16.1933823 L19.8066173,16.1933823 L19.8066173,9 Z" id="Combined-Shape"></path>
        </g>
        <path d="M47,32 L59.6720421,19.5018948 L47,7 M72,32 L59.3279579,19.5018948 L72,7" id="Imported-Layers" stroke="#842B59" stroke-width="1.5" stroke-linejoin="round"></path>
    </g>
</svg>